<?xml version="1.0" encoding="UTF-8" standalone="no"?>
<svg
   xmlns:dc="http://purl.org/dc/elements/1.1/"
   xmlns:cc="http://creativecommons.org/ns#"
   xmlns:rdf="http://www.w3.org/1999/02/22-rdf-syntax-ns#"
   xmlns:svg="http://www.w3.org/2000/svg"
   xmlns="http://www.w3.org/2000/svg"
   xmlns:sodipodi="http://sodipodi.sourceforge.net/DTD/sodipodi-0.dtd"
   xmlns:inkscape="http://www.inkscape.org/namespaces/inkscape"
   id="svg1"
   version="1.1"
   height="24"
   width="24"
   sodipodi:docname="mypaint-tool-selection-symbolic.svg"
   inkscape:version="0.92.0 r15299">
  <defs
     id="defs17" />
  <sodipodi:namedview
     pagecolor="#ffffff"
     bordercolor="#666666"
     borderopacity="1"
     objecttolerance="10"
     gridtolerance="10"
     guidetolerance="10"
     inkscape:pageopacity="0"
     inkscape:pageshadow="2"
     inkscape:window-width="1916"
     inkscape:window-height="1041"
     id="namedview15"
     showgrid="false"
     inkscape:snap-bbox="true"
     inkscape:bbox-paths="true"
     inkscape:bbox-nodes="true"
     inkscape:snap-bbox-edge-midpoints="true"
     inkscape:snap-bbox-midpoints="true"
     inkscape:zoom="27.812866"
     inkscape:cx="16.522838"
     inkscape:cy="7.9944054"
     inkscape:window-x="0"
     inkscape:window-y="18"
     inkscape:window-maximized="0"
     inkscape:current-layer="layer3"
     inkscape:snap-object-midpoints="true"
     inkscape:snap-center="true" />
  <title
     id="title13694">MyPaint symbolic icons</title>
  <metadata
     id="metadata7">
    <rdf:RDF>
      <cc:Work
         rdf:about="">
        <dc:format>image/svg+xml</dc:format>
        <dc:type
           rdf:resource="http://purl.org/dc/dcmitype/StillImage" />
        <dc:title>MyPaint symbolic icons</dc:title>
        <cc:license
           rdf:resource="" />
        <dc:creator>
          <cc:Agent>
            <dc:title>GNOME Project</dc:title>
          </cc:Agent>
        </dc:creator>
        <dc:contributor>
          <cc:Agent>
            <dc:title>Andrew Chadwick</dc:title>
          </cc:Agent>
        </dc:contributor>
      </cc:Work>
    </rdf:RDF>
  </metadata>
  <g
     inkscape:groupmode="layer"
     id="layer2"
     inkscape:label="Original"
     style="display:none">
    <rect
       style="fill:none;fill-opacity:0.66169152;stroke:#bebebe;stroke-width:2.44499993;stroke-linecap:butt;stroke-linejoin:bevel;stroke-miterlimit:4;stroke-dasharray:7.3349998, 2.44499993;stroke-dashoffset:9.04650021;stroke-opacity:1;paint-order:normal"
       id="rect4495-6"
       width="21.554924"
       height="17.534925"
       x="1.2225376"
       y="3.2225368"
       ry="5.2440939"
       rx="6.3280067" />
  </g>
  <g
     inkscape:groupmode="layer"
     id="layer3"
     inkscape:label="Path"
     style="display:inline">
    <path
       style="color:#000000;font-style:normal;font-variant:normal;font-weight:normal;font-stretch:normal;font-size:medium;line-height:normal;font-family:sans-serif;font-variant-ligatures:normal;font-variant-position:normal;font-variant-caps:normal;font-variant-numeric:normal;font-variant-alternates:normal;font-feature-settings:normal;text-indent:0;text-align:start;text-decoration:none;text-decoration-line:none;text-decoration-style:solid;text-decoration-color:#000000;letter-spacing:normal;word-spacing:normal;text-transform:none;writing-mode:lr-tb;direction:ltr;text-orientation:mixed;dominant-baseline:auto;baseline-shift:baseline;text-anchor:start;white-space:normal;shape-padding:0;clip-rule:nonzero;display:inline;overflow:visible;visibility:visible;opacity:1;isolation:auto;mix-blend-mode:normal;color-interpolation:sRGB;color-interpolation-filters:linearRGB;solid-color:#000000;solid-opacity:1;vector-effect:none;fill:#bebebe;fill-opacity:1;fill-rule:nonzero;stroke:none;stroke-width:2.44499993;stroke-linecap:butt;stroke-linejoin:bevel;stroke-miterlimit:4;stroke-dasharray:7.3349998, 2.44499993;stroke-dashoffset:9.04650021;stroke-opacity:1;paint-order:normal;color-rendering:auto;image-rendering:auto;shape-rendering:auto;text-rendering:auto;enable-background:accumulate"
       d="M 8.2832031,4.4453125 H 15.619141 V 2 H 8.2832031 Z M 5.4101562,2.2617188 5.3105469,2.2871094 4.7285156,2.4628906 4.6308594,2.4980469 4.078125,2.71875 3.9804688,2.7617188 3.4589844,3.0234375 3.3652344,3.0761719 2.8769531,3.3769531 2.7851562,3.4414062 2.3359375,3.7792969 2.2480469,3.8515625 1.8398438,4.2246094 1.7558594,4.3085938 1.3925781,4.7128906 1.3144531,4.8085938 0.99804688,5.2421875 0.92578125,5.3496094 0.66015625,5.8085938 0.59960938,5.9296875 0.38671875,6.4121094 0.33789062,6.5429688 0.18164062,7.046875 0.1484375,7.1875 0.05273437,7.7089844 0.03515625,7.8554688 0.01367188,8.203125 2.4550781,8.3496094 2.4707031,8.0742188 2.5371094,7.7070312 2.6523438,7.3359375 2.8144531,6.96875 3.0039062,6.6386719 3.2460938,6.3085938 3.5253906,5.9960938 3.8554688,5.6953125 4.2128906,5.4257812 4.6035156,5.1855469 5.015625,4.9765625 5.5039062,4.7832031 5.9492188,4.6484375 6.2304688,4.5878906 5.7246094,2.1953125 Z M 17.796875,4.59375 l 0.253906,0.054687 0.445313,0.1347656 0.488281,0.1933594 0.412109,0.2089844 0.390625,0.2402343 0.357422,0.2695313 0.330078,0.3007813 0.279297,0.3125 0.242188,0.3300781 0.189453,0.3300781 0.162109,0.3671875 0.115235,0.3710937 0.06641,0.3691407 0.01758,0.3046875 L 23.988281,8.2324219 23.964844,7.8554688 23.947266,7.7089844 23.851562,7.1875 23.816406,7.046875 23.662109,6.5429688 23.613281,6.4121094 23.400391,5.9296875 23.339844,5.8085938 23.074219,5.3496094 23.001953,5.2421875 22.685547,4.8085938 22.607422,4.7128906 22.244141,4.3085938 22.160156,4.2246094 21.751953,3.8515625 21.664062,3.7792969 21.214844,3.4414062 21.123047,3.3769531 20.634766,3.0761719 20.541016,3.0234375 20.019531,2.7617188 19.921875,2.71875 19.369141,2.4980469 19.271484,2.4628906 18.689453,2.2871094 18.587891,2.2617188 18.304688,2.2011719 Z M 0,15.513672 l 0.00195313,0.07422 0.03320312,0.537109 0.01757812,0.146484 0.09570313,0.521485 0.0332031,0.140625 0.15625,0.503906 0.0488281,0.130859 0.21289063,0.482422 0.0605469,0.121094 0.2109375,0.363281 L 2.9863281,17.308594 2.8125,17.009766 2.6542969,16.648438 2.5371094,16.273438 2.4707031,15.902344 2.4453125,15.472656 V 10.720703 H 0 Z m 21.554688,-0.04102 -0.02539,0.429688 -0.06641,0.371094 -0.117188,0.375 -0.158203,0.361328 -0.189453,0.324218 2.115234,1.226563 0.226563,-0.388672 0.06055,-0.121094 0.21289,-0.482422 0.04883,-0.130859 0.154297,-0.503906 0.03516,-0.140625 0.0957,-0.521485 0.01758,-0.146484 0.0332,-0.537109 L 24,15.513672 V 10.75 h -2.445312 z m -18.5566411,5.205078 0.3671875,0.226563 0.09375,0.05273 0.5214844,0.261719 0.097656,0.04297 0.5527344,0.220703 0.097656,0.03516 0.5820313,0.175781 0.099609,0.02539 0.6074219,0.128906 0.1015625,0.01758 0.6308594,0.07813 0.1015625,0.0078 0.6484375,0.02734 0.050781,0.002 H 10.761719 V 19.535156 H 7.6015625 l -0.5898437,-0.02344 -0.5410157,-0.06836 -0.5,-0.105468 L 5.4824219,19.189453 5.03125,19.009766 4.6015625,18.794922 4.2851562,18.597656 Z m 16.3984371,-1.882812 -0.427734,0.214844 -0.451172,0.179687 -0.488281,0.148438 -0.5,0.105468 -0.541016,0.06836 -0.589843,0.02344 h -3.191407 v 2.445313 h 3.242188 l 0.05078,-0.002 0.648438,-0.02734 0.101562,-0.0078 0.630859,-0.07813 0.101563,-0.01758 0.605469,-0.128906 0.101562,-0.02539 0.582031,-0.175781 0.09766,-0.03516 0.552734,-0.220703 0.09766,-0.04297 0.521485,-0.261719 0.09375,-0.05273 0.341796,-0.210938 -1.287109,-2.080078 z"
       id="rect4495-6-3"
       inkscape:connector-curvature="0" />
  </g>
</svg>
